<svg width="75" height="16" viewBox="0 0 75 16" fill="none" xmlns="http://www.w3.org/2000/svg">
<g clip-path="url(#clip0_1043_1832)">
<path d="M11.5878 16C11.5878 16 18.8556 16 20.6583 15.52C21.6734 15.248 22.4367 14.464 22.7046 13.496C23.2 11.72 23.2 7.984 23.2 7.984C23.2 7.984 23.2 4.272 22.7046 2.512C22.4367 1.52 21.6734 0.752 20.6583 0.488C18.8556 0 11.5878 0 11.5878 0C11.5878 0 4.3363 0 2.54169 0.488C1.54288 0.752 0.763318 1.52 0.479104 2.512C0 4.272 0 7.984 0 7.984C0 7.984 0 11.72 0.479104 13.496C0.763318 14.464 1.54288 15.248 2.54169 15.52C4.3363 16 11.5878 16 11.5878 16Z" fill="#FF0033"/>
<path d="M15.1992 7.99961L9.19922 4.59961V11.3996L15.1992 7.99961Z" fill="white"/>
<path d="M29.71 15.1197V10.7517L32.486 1.67969H30.414L29.358 5.79969C29.118 6.74369 28.902 7.72769 28.742 8.63966H28.614C28.526 7.83969 28.27 6.79169 28.014 5.78369L26.99 1.67969H24.918L27.654 10.7517V15.1197H29.71Z" fill="white"/>
<path d="M35.2794 5.04102C32.8554 5.04102 32.0234 6.44102 32.0234 9.45698V10.889C32.0234 13.593 32.5434 15.289 35.2314 15.289C37.8794 15.289 38.4474 13.673 38.4474 10.889V9.45698C38.4474 6.76102 37.9034 5.04102 35.2794 5.04102ZM36.3114 11.777C36.3114 13.089 36.0794 13.913 35.2394 13.913C34.4154 13.913 34.1834 13.081 34.1834 11.777V8.54498C34.1834 7.42502 34.3434 6.42502 35.2394 6.42502C36.1834 6.42502 36.3114 7.48102 36.3114 8.54498V11.777Z" fill="white"/>
<path d="M41.8163 15.2724C42.9843 15.2724 43.7123 14.7844 44.3123 13.9044H44.4003L44.4883 15.1204H46.0802V5.23242H43.9683V13.1764C43.7442 13.5684 43.2242 13.8564 42.7362 13.8564C42.1202 13.8564 41.9283 13.3684 41.9283 12.5524V5.23242H39.8242V12.6484C39.8242 14.2564 40.2883 15.2724 41.8163 15.2724Z" fill="white"/>
<path d="M50.2602 15.1197V3.31969H52.6922V1.67969H45.7402V3.31969H48.1722V15.1197H50.2602Z" fill="white"/>
<path d="M54.2967 15.2724C55.4647 15.2724 56.1927 14.7844 56.7927 13.9044H56.8807L56.9687 15.1204H58.5607V5.23242H56.4487V13.1764C56.2247 13.5684 55.7047 13.8564 55.2167 13.8564C54.6007 13.8564 54.4087 13.3684 54.4087 12.5524V5.23242H52.3047V12.6484C52.3047 14.2564 52.7687 15.2724 54.2967 15.2724Z" fill="white"/>
<path d="M64.538 5.01634C63.514 5.01634 62.778 5.46434 62.29 6.19234H62.186C62.25 5.23234 62.298 4.41634 62.298 3.76834V1.15234H60.258L60.25 9.74431L60.258 15.1203H62.034L62.186 14.1603H62.242C62.714 14.8083 63.442 15.2163 64.41 15.2163C66.018 15.2163 66.706 13.8323 66.706 10.8883V9.36031C66.706 6.60834 66.394 5.01634 64.538 5.01634ZM64.61 10.8883C64.61 12.7283 64.338 13.8243 63.482 13.8243C63.082 13.8243 62.53 13.6323 62.282 13.2723V7.39234C62.498 6.83234 62.978 6.42434 63.514 6.42434C64.378 6.42434 64.61 7.47234 64.61 9.38431V10.8883Z" fill="white"/>
<path d="M74.1206 9.2008C74.1206 6.81683 73.8806 5.04883 71.1366 5.04883C68.5526 5.04883 67.9766 6.76883 67.9766 9.2968V11.0328C67.9766 13.4968 68.5046 15.2888 71.0726 15.2888C73.1046 15.2888 74.1526 14.2728 74.0326 12.3048L72.2326 12.2088C72.2086 13.4248 71.9286 13.9208 71.1206 13.9208C70.1046 13.9208 70.0566 12.9528 70.0566 11.5128V10.8408H74.1206V9.2008ZM71.0886 6.37683C72.0646 6.37683 72.1366 7.29683 72.1366 8.8568V9.6648H70.0566V8.8568C70.0566 7.31283 70.1206 6.37683 71.0886 6.37683Z" fill="white"/>
</g>
<defs>
<clipPath id="clip0_1043_1832">
<rect width="74.4" height="16" fill="white"/>
</clipPath>
</defs>
</svg>
