<svg width="23" height="50" viewBox="0 0 23 50" fill="none" xmlns="http://www.w3.org/2000/svg">
<path d="M22.0427 19.8975C19.4087 8.2773 13.9186 5.18385 12.5181 2.9971C11.9406 2.03378 11.4291 1.03246 10.9869 0C10.9129 1.0323 10.777 1.68264 9.89956 2.46547C8.13779 4.03628 0.655406 10.1337 0.0257088 23.3368C-0.560976 35.6469 9.07545 43.2377 10.3486 44.0223C11.3276 44.504 12.5199 44.0326 13.1014 43.5904C17.7467 40.4024 24.0935 31.9031 22.0479 19.8975" fill="#10AA50"/>
<path d="M11.3858 37.4688C11.1432 40.5157 10.9694 42.2861 10.3535 44.0273C10.3535 44.0273 10.7578 46.928 11.0417 50.0008H12.0465C12.2861 47.837 12.6521 45.689 13.1424 43.5679C11.8417 42.9279 11.4357 40.1424 11.3858 37.4688Z" fill="#B8C4C2"/>
<path d="M13.1428 43.5683C11.8283 42.9609 11.4481 40.117 11.3896 37.4674C11.7146 33.0968 11.8094 28.712 11.6735 24.3314C11.6046 22.0328 11.7062 3.04204 11.1074 0.261719C11.517 1.20338 11.9889 2.1167 12.5199 2.99558C13.9204 5.18405 19.4122 8.2775 22.0445 19.8977C24.0954 31.8827 17.7829 40.3595 13.1428 43.5683Z" fill="#12924F"/>
</svg>
