<svg width="45" height="45" viewBox="0 0 45 45" fill="none" xmlns="http://www.w3.org/2000/svg">
<g clip-path="url(#clip0_1046_2514)">
<path d="M21.0264 0.0121097C20.9296 0.020906 20.6217 0.0516933 20.3446 0.0736842C13.9531 0.649846 7.96628 4.09802 4.17449 9.39783C2.06305 12.3446 0.71261 15.6872 0.202346 19.2278C0.0219941 20.4636 0 20.8287 0 22.5044C0 24.1801 0.0219941 24.5452 0.202346 25.781C1.42522 34.23 7.43842 41.3286 15.5938 43.9587C17.0543 44.4293 18.5938 44.7504 20.3446 44.9439C21.0264 45.0187 23.9736 45.0187 24.6554 44.9439C27.6774 44.6097 30.2375 43.862 32.7625 42.5733C33.1496 42.3754 33.2243 42.3226 33.1716 42.2786C33.1364 42.2522 31.4868 40.04 29.5073 37.3659L25.9091 32.5059L21.4003 25.8338C18.9194 22.1657 16.8783 19.1662 16.8607 19.1662C16.8431 19.1618 16.8255 22.1262 16.8167 25.7459C16.8035 32.0836 16.7991 32.3387 16.7199 32.4883C16.6056 32.7038 16.5176 32.7917 16.3328 32.8885C16.1921 32.9589 16.0689 32.9721 15.4047 32.9721H14.6437L14.4413 32.8445C14.3094 32.761 14.2126 32.651 14.1466 32.5235L14.0543 32.3255L14.0631 23.5072L14.0762 14.6844L14.2126 14.5129C14.283 14.4205 14.4326 14.3018 14.5381 14.2446C14.7185 14.1567 14.7889 14.1479 15.5499 14.1479C16.4472 14.1479 16.5968 14.183 16.8299 14.4381C16.8959 14.5085 19.3372 18.1854 22.2581 22.6144C25.1789 27.0433 29.173 33.0908 31.1349 36.0596L34.6979 41.4562L34.8783 41.3374C36.4751 40.2994 38.1642 38.8217 39.5015 37.2823C42.3475 34.0144 44.1818 30.0297 44.7977 25.781C44.978 24.5452 45 24.1801 45 22.5044C45 20.8287 44.978 20.4636 44.7977 19.2278C43.5748 10.7789 37.5616 3.68019 29.4062 1.05008C27.9677 0.583873 26.437 0.262806 24.7214 0.069286C24.2991 0.0253042 21.3915 -0.0230758 21.0264 0.0121097ZM30.2375 13.6201C30.4487 13.7256 30.6202 13.928 30.6818 14.1391C30.717 14.2534 30.7258 16.6988 30.717 22.2097L30.7038 30.1177L29.3094 27.9801L27.9106 25.8426V20.0942C27.9106 16.3777 27.9282 14.2886 27.9545 14.1874C28.0249 13.9411 28.1789 13.7476 28.39 13.6333C28.5704 13.5409 28.6364 13.5321 29.327 13.5321C29.978 13.5321 30.0924 13.5409 30.2375 13.6201Z" fill="white"/>
</g>
<defs>
<clipPath id="clip0_1046_2514">
<rect width="45" height="45" fill="white"/>
</clipPath>
</defs>
</svg>
